<svg id="Layer_1" data-name="Layer 1" xmlns="http://www.w3.org/2000/svg" viewBox="0 0 100 100"><defs><style>.cls-1{fill:#fff;}</style></defs><title>Adfone_Mark</title><path class="cls-1" d="M97.6,29.3V19.9Q97.6,2,79.44,2H20.56Q2.41,2,2.4,19.9v9.4H57.74a8,8,0,0,1,7.93,8V66.8A4.14,4.14,0,0,1,61.49,71H39a4.42,4.42,0,0,1-4.41-4.41V57.38H58.83V40.56a4.42,4.42,0,0,0-4.4-4.41H2.4V80.38A23.16,23.16,0,0,0,3.86,89c.11.27.22.53.34.79a13.82,13.82,0,0,0,2.25,3.41,13,13,0,0,0,2.46,2.09,11.3,11.3,0,0,0,1.44.84,23.06,23.06,0,0,0,10.5,2.12h58.3a24.48,24.48,0,0,0,9.43-1.62c.37-.16.73-.32,1.07-.5a13.6,13.6,0,0,0,2.11-1.31,12.19,12.19,0,0,0,1.23-1,13.63,13.63,0,0,0,1.08-1.19c.17-.21.33-.42.48-.64a12.58,12.58,0,0,0,.87-1.4,15.72,15.72,0,0,0,1-2.36l.27-.86a25.11,25.11,0,0,0,.88-7V36.15h0V29.3Z"/></svg>